<svg xmlns="http://www.w3.org/2000/svg" viewBox="0 0 132.01 57.89"><defs><style>.cls-1{fill:none;stroke:#2f3030;stroke-width:2.06px;}.cls-1,.cls-2{stroke-miterlimit:10;}.cls-2{fill:#fff;stroke:#000;stroke-width:0.41px;opacity:0.75;}.cls-3{fill:#231f20;}.cls-4{fill:#34c6f4;}</style></defs><title>Logo</title><g id="Layer_2" data-name="Layer 2"><g id="Layer_3" data-name="Layer 3"><polyline class="cls-1" points="10.92 51.3 90.8 52.34 90.8 52.75 82.47 32.83"/><polyline class="cls-2" points="77.25 34.94 83.32 48.72 14.19 47.48 5.13 16.93 69.32 16.93 72.58 24.34"/><path class="cls-3" d="M71.61,12.37c6.44,0,4.42,1.55-1.45,4.53A164.43,164.43,0,0,1,36.08,29.34H55.39c2.69,0,2.4.83.41,2.88a23,23,0,0,1-5.31,4.24c5-1.41,13-3.74,16.05-4.86a2,2,0,0,1-1.46,1.95c-5.36,1.9-18,5.28-27.76,8.05-1.27.32-2.28-.87-1-1.26,7.09-2.12,14.89-6.36,16.41-8.63.41-.61.2-.72-.63-.72l-21,0c-2,0-2.81-1.3-1.57-1.84,0,0,22.42-5.42,34.23-12.51,2.7-1.61,2.67-1.54-.3-1.54l-28.86,0L12,48.14c-1.33,1.94-2.49,1.76-3,0L.25,15.25c-.6-2.23-.18-2.88,1.9-2.88H33.56L41.45.91l2.1-.79c.92-.36,1.22.18.8.79L36.49,12.37ZM11.55,44.51l20.14-29.4H2.23c-.62,0-.77.46-.59,1l8.69,28.15C10.54,45,11.1,45.16,11.55,44.51Z"/><path class="cls-4" d="M88.09,29.35l-9,3.6c-.8.32-1.17,0-.73-.76L80.92,28,68.29,32.8c-1.19.47-1.65.18-1.65-.57,0-2.73,3.7-7.19,9-7.19,2.64,0,3.6,1.15,4,1.8l4.48-1.73c.72-.29,1.08.18.72.79l-2.56,4.28,7.14-2.73A2.12,2.12,0,0,1,88.09,29.35Zm-12.47-2.8c-2.82,0-5,1.91-5.28,3.2-.13.47,0,.57,1.14.18,4.89-1.73,6.7-2.62,6.7-2.62C77.84,27,77.35,26.55,75.62,26.55Z"/><path class="cls-4" d="M107.68,29.32l-2.33.93c-4.58,1.84-5.22-.93-4.24-2.84-2.33.36-6.06,1.91-11,5.47-.76.54-1.2.14-.73-.65L92,28l-6.73,2.52a2.17,2.17,0,0,1,1.27-1.94l8.56-3.38c.83-.33,1.06.18.7.79l-2,3.2a21.09,21.09,0,0,1,10.41-4s.65,1.19.21,1.59c-1.89,1.76-1.12,2.87,1.7,1.76l2.83-1.12A2.15,2.15,0,0,1,107.68,29.32Z"/><path class="cls-4" d="M130.74,29.35l-9,3.6c-.8.32-1.17,0-.73-.76L123.57,28,110.89,32.8c-1.16.44-1.6.18-1.6-.57a6.43,6.43,0,0,1,2.61-4.57,33.84,33.84,0,0,1-4.06,1.73l-3,1.08a2.17,2.17,0,0,1,1.26-1.94l1.58-.65c6.45-2.52,8-2.84,10.54-2.84s3.6,1.15,4,1.8l4.48-1.73c.72-.29,1.08.18.72.79l-2.56,4.28L132,27.45A2.12,2.12,0,0,1,130.74,29.35Zm-12.47-2.8c-2.82,0-5,1.91-5.28,3.2-.13.47,0,.57,1.14.18,4.89-1.73,6.7-2.62,6.7-2.62C120.49,27,120,26.55,118.27,26.55Z"/></g></g></svg>